Rokkitt-Book-Glyphs.ufo
<glyph name="percent" format="1">
  <advance width="1579"/>
  <unicode hex="0025"/>
  <outline>
    <contour>
      <point x="323" y="-50" type="line"/>
      <point x="255" y="0" type="line"/>
      <point x="1205" y="1196" type="line"/>
      <point x="1266" y="1146" type="line"/>
    </contour>
    <contour>
      <point x="66" y="1041"/>
      <point x="162" y="1170"/>
      <point x="326" y="1170" type="curve" smooth="yes"/>
      <point x="489" y="1170"/>
      <point x="586" y="1040"/>
      <point x="586" y="863" type="curve" smooth="yes"/>
      <point x="586" y="684"/>
      <point x="491" y="557"/>
      <point x="326" y="557" type="curve" smooth="yes"/>
      <point x="165" y="557"/>
      <point x="66" y="676"/>
      <point x="66" y="863" type="curve" smooth="yes"/>
    </contour>
    <contour>
      <point x="206" y="749"/>
      <point x="236" y="660"/>
      <point x="326" y="660" type="curve" smooth="yes"/>
      <point x="415" y="660"/>
      <point x="447" y="757"/>
      <point x="447" y="863" type="curve" smooth="yes"/>
      <point x="447" y="982"/>
      <point x="414" y="1066"/>
      <point x="321" y="1066" type="curve" smooth="yes"/>
      <point x="237" y="1066"/>
      <point x="205" y="966"/>
      <point x="205" y="863" type="curve" smooth="yes"/>
    </contour>
    <contour>
      <point x="928" y="466"/>
      <point x="1024" y="594"/>
      <point x="1189" y="594" type="curve" smooth="yes"/>
      <point x="1350" y="594"/>
      <point x="1449" y="464"/>
      <point x="1449" y="290" type="curve" smooth="yes"/>
      <point x="1450" y="111"/>
      <point x="1355" y="-19"/>
      <point x="1189" y="-19" type="curve" smooth="yes"/>
      <point x="1028" y="-19"/>
      <point x="931" y="101"/>
      <point x="929" y="287" type="curve" smooth="yes"/>
    </contour>
    <contour>
      <point x="1068" y="173"/>
      <point x="1098" y="84"/>
      <point x="1188" y="84" type="curve" smooth="yes"/>
      <point x="1276" y="84"/>
      <point x="1310" y="182"/>
      <point x="1310" y="287" type="curve" smooth="yes"/>
      <point x="1310" y="406"/>
      <point x="1277" y="490"/>
      <point x="1184" y="490" type="curve" smooth="yes"/>
      <point x="1100" y="490"/>
      <point x="1068" y="390"/>
      <point x="1068" y="287" type="curve" smooth="yes"/>
    </contour>
  </outline>
</glyph>
<glyph name="parenleft" format="1">
  <advance width="522"/>
  <unicode hex="0028"/>
  <outline>
    <contour>
      <point x="34" y="518" type="curve" smooth="yes"/>
      <point x="34" y="858"/>
      <point x="228" y="1062"/>
      <point x="476" y="1165" type="curve"/>
      <point x="476" y="1037" type="line"/>
      <point x="289" y="925"/>
      <point x="195" y="752"/>
      <point x="195" y="517" type="curve" smooth="yes"/>
      <point x="195" y="280"/>
      <point x="289" y="108"/>
      <point x="476" y="-1" type="curve"/>
      <point x="476" y="-132" type="line"/>
      <point x="215" y="-25"/>
      <point x="34" y="175"/>
    </contour>
  </outline>
</glyph>
<glyph name="A" format="1">
  <advance width="1267"/>
  <unicode hex="0041"/>
  <outline>
    <contour>
      <point x="336" y="1152" type="line"/>
      <point x="336" y="1036" type="line"/>
      <point x="482" y="1036" type="line"/>
      <point x="178" y="116" type="line"/>
      <point x="30" y="116" type="line"/>
      <point x="30" y="0" type="line"/>
      <point x="489" y="0" type="line"/>
      <point x="489" y="116" type="line"/>
      <point x="344" y="116" type="line"/>
      <point x="435" y="422" type="line"/>
      <point x="838" y="422" type="line"/>
      <point x="939" y="116" type="line"/>
      <point x="777" y="116" type="line"/>
      <point x="777" y="0" type="line"/>
      <point x="1237" y="0" type="line"/>
      <point x="1237" y="116" type="line"/>
      <point x="1096" y="116" type="line"/>
      <point x="774" y="1036" type="line"/>
      <point x="918" y="1036" type="line"/>
      <point x="918" y="1152" type="line"/>
    </contour>
    <contour>
      <point x="803" y="531" type="line"/>
      <point x="465" y="531" type="line"/>
      <point x="625" y="1036" type="line"/>
      <point x="636" y="1036" type="line"/>
    </contour>
    <contour>
      <point x="1016" y="0" type="move" name="ogonek"/>
    </contour>
    <contour>
      <point x="637" y="1152" type="move" name="top"/>
    </contour>
  </outline>
</glyph>
<glyph name="B" format="1">
  <advance width="1040"/>
  <unicode hex="0042"/>
  <outline>
    <contour>
      <point x="290" y="116" type="line"/>
      <point x="290" y="0" type="line"/>
      <point x="547" y="0" type="line" smooth="yes"/>
      <point x="796" y="0"/>
      <point x="988" y="94"/>
      <point x="988" y="323" type="curve" smooth="yes"/>
      <point x="988" y="478"/>
      <point x="885" y="575"/>
      <point x="753" y="607" type="curve"/>
      <point x="857" y="649"/>
      <point x="934" y="740"/>
      <point x="934" y="854" type="curve" smooth="yes"/>
      <point x="934" y="1058"/>
      <point x="781" y="1150"/>
      <point x="558" y="1152" type="curve"/>
      <point x="290" y="1152" type="line"/>
      <point x="290" y="1036" type="line"/>
      <point x="519" y="1036" type="line" smooth="yes"/>
      <point x="685" y="1036"/>
      <point x="768" y="975"/>
      <point x="768" y="851" type="curve" smooth="yes"/>
      <point x="768" y="719"/>
      <point x="686" y="661"/>
      <point x="543" y="661" type="curve" smooth="yes"/>
      <point x="294" y="661" type="line"/>
      <point x="294" y="532" type="line"/>
      <point x="552" y="532" type="line" smooth="yes"/>
      <point x="710" y="532"/>
      <point x="821" y="466"/>
      <point x="821" y="332" type="curve" smooth="yes"/>
      <point x="821" y="188"/>
      <point x="729" y="116"/>
      <point x="546" y="116" type="curve" smooth="yes"/>
    </contour>
    <component base="uc_main_stem"/>
  </outline>
</glyph>
<glyph name="C" format="1">
  <advance width="1247"/>
  <unicode hex="0043"/>
  <outline>
    <contour>
      <point x="317" y="1171"/>
      <point x="70" y="933"/>
      <point x="70" y="575" type="curve"/>
      <point x="72" y="220"/>
      <point x="312" y="-18"/>
      <point x="675" y="-18" type="curve" smooth="yes"/>
      <point x="929" y="-18"/>
      <point x="1099" y="116"/>
      <point x="1189" y="307" type="curve"/>
      <point x="1072" y="378" type="line"/>
      <point x="1008" y="225"/>
      <point x="868" y="115"/>
      <point x="676" y="115" type="curve" smooth="yes"/>
      <point x="410" y="115"/>
      <point x="247" y="302"/>
      <point x="247" y="580" type="curve" smooth="yes"/>
      <point x="247" y="837"/>
      <point x="395" y="1036"/>
      <point x="649" y="1036" type="curve" smooth="yes"/>
      <point x="829" y="1036"/>
      <point x="993" y="950"/>
      <point x="1033" y="765" type="curve"/>
      <point x="1158" y="765" type="line"/>
      <point x="1158" y="1153" type="line"/>
      <point x="1028" y="1153" type="line"/>
      <point x="1028" y="987" type="line"/>
      <point x="949" y="1117"/>
      <point x="823" y="1171"/>
      <point x="645" y="1171" type="curve" smooth="yes"/>
    </contour>
    <contour>
      <point x="675" y="0" type="move" name="bot"/>
    </contour>
  </outline>
</glyph>
<glyph name="D" format="1">
  <advance width="1284"/>
  <unicode hex="0044"/>
  <outline>
    <contour>
      <point x="292" y="116" type="line"/>
      <point x="292" y="0" type="line"/>
      <point x="612" y="0" type="line" smooth="yes"/>
      <point x="1012" y="0"/>
      <point x="1212" y="199"/>
      <point x="1212" y="596" type="curve" smooth="yes"/>
      <point x="1212" y="963"/>
      <point x="989" y="1152"/>
      <point x="626" y="1152" type="curve" smooth="yes"/>
      <point x="292" y="1152" type="line"/>
      <point x="292" y="1036" type="line"/>
      <point x="622" y="1036" type="line" smooth="yes"/>
      <point x="910" y="1036"/>
      <point x="1047" y="865"/>
      <point x="1047" y="581" type="curve" smooth="yes"/>
      <point x="1047" y="308"/>
      <point x="913" y="116"/>
      <point x="638" y="116" type="curve" smooth="yes"/>
    </contour>
    <component base="uc_main_stem"/>
  </outline>
</glyph>
<glyph name="E" format="1">
  <advance width="1082"/>
  <unicode hex="0045"/>
  <outline>
    <contour>
      <point x="899" y="328" type="line"/>
      <point x="899" y="116" type="line"/>
      <point x="291" y="116" type="line"/>
      <point x="291" y="0" type="line"/>
      <point x="1028" y="0" type="line"/>
      <point x="1028" y="328" type="line"/>
    </contour>
    <contour>
      <point x="687" y="769" type="line"/>
      <point x="687" y="655" type="line"/>
      <point x="290" y="655" type="line"/>
      <point x="290" y="526" type="line"/>
      <point x="686" y="526" type="line"/>
      <point x="686" y="410" type="line"/>
      <point x="787" y="410" type="line"/>
      <point x="787" y="769" type="line"/>
    </contour>
    <contour>
      <point x="291" y="1152" type="line"/>
      <point x="291" y="1036" type="line"/>
      <point x="888" y="1036" type="line"/>
      <point x="888" y="832" type="line"/>
      <point x="1019" y="832" type="line"/>
      <point x="1019" y="1152" type="line"/>
    </contour>
    <component base="uc_main_stem"/>
    <contour>
      <point x="610" y="1152" type="move" name="top"/>
    </contour>
    <contour>
      <point x="676" y="0" type="move" name="ogonek"/>
    </contour>
  </outline>
</glyph>
<glyph name="F" format="1">
  <advance width="997"/>
  <unicode hex="0046"/>
  <outline>
    <contour>
      <point x="291" y="1152" type="line"/>
      <point x="291" y="1036" type="line"/>
      <point x="858" y="1036" type="line"/>
      <point x="858" y="832" type="line"/>
      <point x="989" y="832" type="line"/>
      <point x="989" y="1152" type="line"/>
    </contour>
    <contour>
      <point x="698" y="769" type="line"/>
      <point x="698" y="655" type="line"/>
      <point x="290" y="655" type="line"/>
      <point x="290" y="526" type="line"/>
      <point x="697" y="526" type="line"/>
      <point x="697" y="410" type="line"/>
      <point x="798" y="410" type="line"/>
      <point x="798" y="769" type="line"/>
    </contour>
    <component base="uc_main_stem"/>
    <contour>
      <point x="600" y="1152" type="move" name="top"/>
    </contour>
  </outline>
</glyph>
<glyph name="G" format="1">
  <advance width="1282"/>
  <unicode hex="0047"/>
  <outline>
    <contour>
      <point x="317" y="1171"/>
      <point x="70" y="933"/>
      <point x="70" y="575" type="curve"/>
      <point x="72" y="220"/>
      <point x="313" y="-18"/>
      <point x="676" y="-18" type="curve"/>
      <point x="1039" y="-18"/>
      <point x="1222" y="179"/>
      <point x="1222" y="563" type="curve"/>
      <point x="831" y="563" type="line"/>
      <point x="831" y="436" type="line"/>
      <point x="1058" y="436" type="line"/>
      <point x="1051" y="235"/>
      <point x="922" y="115"/>
      <point x="676" y="115" type="curve"/>
      <point x="410" y="115"/>
      <point x="247" y="302"/>
      <point x="247" y="580" type="curve" smooth="yes"/>
      <point x="247" y="837"/>
      <point x="395" y="1036"/>
      <point x="649" y="1036" type="curve" smooth="yes"/>
      <point x="829" y="1036"/>
      <point x="993" y="950"/>
      <point x="1033" y="765" type="curve"/>
      <point x="1158" y="765" type="line"/>
      <point x="1158" y="1152" type="line"/>
      <point x="1028" y="1152" type="line"/>
      <point x="1028" y="987" type="line"/>
      <point x="949" y="1117"/>
      <point x="823" y="1171"/>
      <point x="645" y="1171" type="curve" smooth="yes"/>
    </contour>
    <contour>
      <point x="668" y="1152" type="move" name="top"/>
    </contour>
    <contour>
      <point x="675" y="0" type="move" name="bot"/>
    </contour>
  </outline>
</glyph>
<glyph name="H" format="1">
  <advance width="1288"/>
  <unicode hex="0048"/>
  <outline>
    <contour>
      <point x="1002" y="667" type="line"/>
      <point x="289" y="667" type="line"/>
      <point x="289" y="538" type="line"/>
      <point x="1002" y="538" type="line"/>
    </contour>
    <component base="uc_main_stem" xOffset="716"/>
    <component base="uc_main_stem"/>
  </outline>
</glyph>
<glyph name="I" format="1">
  <advance width="580"/>
  <unicode hex="0049"/>
  <outline>
    <component base="uc_main_stem" xOffset="4"/>
    <contour>
      <point x="290" y="1152" type="move" name="top"/>
    </contour>
    <contour>
      <point x="311" y="0" type="move" name="ogonek"/>
    </contour>
  </outline>
</glyph>
<glyph name="J" format="1">
  <advance width="585"/>
  <unicode hex="004A"/>
  <outline>
    <contour>
      <point x="246" y="117" type="line" smooth="yes"/>
      <point x="246" y="22"/>
      <point x="225" y="-34"/>
      <point x="135" y="-34" type="curve" smooth="yes"/>
      <point x="4" y="-34" type="line"/>
      <point x="4" y="-179" type="line"/>
      <point x="162" y="-179" type="line"/>
      <point x="321" y="-181"/>
      <point x="409" y="-74"/>
      <point x="409" y="99" type="curve" smooth="yes"/>
      <point x="409" y="1036" type="line"/>
      <point x="562" y="1036" type="line"/>
      <point x="562" y="1152" type="line"/>
      <point x="80" y="1152" type="line"/>
      <point x="80" y="1036" type="line"/>
      <point x="246" y="1036" type="line"/>
    </contour>
  </outline>
</glyph>
<glyph name="K" format="1">
  <advance width="1162"/>
  <unicode hex="004B"/>
  <outline>
    <contour>
      <point x="791" y="116" type="line"/>
      <point x="663" y="116" type="line"/>
      <point x="663" y="0" type="line"/>
      <point x="1129" y="0" type="line"/>
      <point x="1129" y="116" type="line"/>
      <point x="998" y="116" type="line"/>
      <point x="568" y="605" type="line"/>
      <point x="989" y="1036" type="line"/>
      <point x="1118" y="1036" type="line"/>
      <point x="1118" y="1152" type="line"/>
      <point x="667" y="1152" type="line"/>
      <point x="667" y="1036" type="line"/>
      <point x="803" y="1036" type="line"/>
      <point x="803" y="1036"/>
      <point x="363" y="603"/>
      <point x="363" y="603" type="curve"/>
    </contour>
    <component base="uc_main_stem"/>
  </outline>
</glyph>
<glyph name="L" format="1">
  <advance width="966"/>
  <unicode hex="004C"/>
  <outline>
    <contour>
      <point x="290" y="116" type="line"/>
      <point x="290" y="0" type="line"/>
      <point x="946" y="0" type="line"/>
      <point x="946" y="452" type="line"/>
      <point x="801" y="452" type="line"/>
      <point x="801" y="116" type="line"/>
    </contour>
    <component base="uc_main_stem"/>
  </outline>
</glyph>
<glyph name="M" format="1">
  <advance width="1590"/>
  <unicode hex="004D"/>
  <outline>
    <contour>
      <point x="354" y="116" type="line"/>
      <point x="354" y="1021" type="line"/>
      <point x="766" y="0" type="line"/>
      <point x="808" y="0" type="line"/>
      <point x="1223" y="1022" type="line"/>
      <point x="1223" y="116" type="line"/>
      <point x="1090" y="116" type="line"/>
      <point x="1090" y="0" type="line"/>
      <point x="1518" y="0" type="line"/>
      <point x="1518" y="116" type="line"/>
      <point x="1371" y="116" type="line"/>
      <point x="1371" y="1036" type="line"/>
      <point x="1518" y="1036" type="line"/>
      <point x="1518" y="1152" type="line"/>
      <point x="1128" y="1152" type="line"/>
      <point x="790" y="317" type="line"/>
      <point x="457" y="1152" type="line"/>
      <point x="72" y="1152" type="line"/>
      <point x="72" y="1036" type="line"/>
      <point x="220" y="1036" type="line"/>
      <point x="220" y="116" type="line"/>
      <point x="72" y="116" type="line"/>
      <point x="72" y="0" type="line"/>
      <point x="487" y="0" type="line"/>
      <point x="487" y="116" type="line"/>
    </contour>
  </outline>
</glyph>
<glyph name="N" format="1">
  <advance width="1341"/>
  <unicode hex="004E"/>
  <outline>
    <contour>
      <point x="837" y="1152" type="line"/>
      <point x="837" y="1036" type="line"/>
      <point x="1002" y="1036" type="line"/>
      <point x="1002" y="211" type="line"/>
      <point x="454" y="1152" type="line"/>
      <point x="72" y="1152" type="line"/>
      <point x="72" y="1036" type="line"/>
      <point x="241" y="1036" type="line"/>
      <point x="241" y="116" type="line"/>
      <point x="72" y="116" type="line"/>
      <point x="72" y="0" type="line"/>
      <point x="544" y="0" type="line"/>
      <point x="544" y="116" type="line"/>
      <point x="375" y="116" type="line"/>
      <point x="375" y="996" type="line"/>
      <point x="953" y="0" type="line"/>
      <point x="1136" y="0" type="line"/>
      <point x="1136" y="1036" type="line"/>
      <point x="1309" y="1036" type="line"/>
      <point x="1309" y="1152" type="line"/>
    </contour>
    <contour>
      <point x="688" y="1152" type="move" name="top"/>
    </contour>
    <contour>
      <point x="690" y="0" type="move" name="bot"/>
    </contour>
  </outline>
</glyph>
<glyph name="O" format="1">
  <advance width="1321"/>
  <unicode hex="004F"/>
  <outline>
    <contour>
      <point x="660" y="1037" type="curve"/>
      <point x="935" y="1037"/>
      <point x="1078" y="831"/>
      <point x="1078" y="576" type="curve" smooth="yes"/>
      <point x="1078" y="322"/>
      <point x="932" y="116"/>
      <point x="660" y="116" type="curve" smooth="yes"/>
      <point x="391" y="116"/>
      <point x="243" y="324"/>
      <point x="243" y="576" type="curve" smooth="yes"/>
      <point x="243" y="830"/>
      <point x="389" y="1037"/>
    </contour>
    <contour>
      <point x="660" y="-19" type="curve"/>
      <point x="1011" y="-19"/>
      <point x="1256" y="234"/>
      <point x="1256" y="575" type="curve" smooth="yes"/>
      <point x="1256" y="924"/>
      <point x="1013" y="1170"/>
      <point x="659" y="1170" type="curve" smooth="yes"/>
      <point x="306" y="1170"/>
      <point x="66" y="923"/>
      <point x="66" y="575" type="curve" smooth="yes"/>
      <point x="66" y="229"/>
      <point x="309" y="-17"/>
    </contour>
  </outline>
</glyph>
<glyph name="P" format="1">
  <advance width="1043"/>
  <unicode hex="0050"/>
  <outline>
    <contour>
      <point x="610" y="1036" type="line" smooth="yes"/>
      <point x="745" y="1036"/>
      <point x="840" y="952"/>
      <point x="840" y="807" type="curve"/>
      <point x="840" y="646"/>
      <point x="758" y="577"/>
      <point x="534" y="577" type="curve" smooth="yes"/>
      <point x="293" y="577" type="line"/>
      <point x="293" y="472" type="line"/>
      <point x="534" y="472" type="line" smooth="yes"/>
      <point x="822" y="472"/>
      <point x="1001" y="553"/>
      <point x="1001" y="805" type="curve" smooth="yes"/>
      <point x="1001" y="1039"/>
      <point x="849" y="1152"/>
      <point x="610" y="1152" type="curve" smooth="yes"/>
      <point x="287" y="1152" type="line"/>
      <point x="287" y="1036" type="line"/>
    </contour>
    <component base="uc_main_stem"/>
  </outline>
</glyph>
<glyph name="Q" format="1">
  <advance width="1331"/>
  <unicode hex="0051"/>
  <outline>
    <contour>
      <point x="312" y="1171"/>
      <point x="70" y="924"/>
      <point x="70" y="573" type="curve" smooth="yes"/>
      <point x="70" y="273"/>
      <point x="262" y="67"/>
      <point x="516" y="9" type="curve"/>
      <point x="715" y="-169"/>
      <point x="867" y="-229"/>
      <point x="997" y="-229" type="curve" smooth="yes"/>
      <point x="1062" y="-229"/>
      <point x="1121" y="-214"/>
      <point x="1179" y="-192" type="curve"/>
      <point x="1134" y="-70" type="line"/>
      <point x="1099" y="-81"/>
      <point x="1050" y="-97"/>
      <point x="991" y="-97" type="curve" smooth="yes"/>
      <point x="921" y="-97"/>
      <point x="838" y="-75"/>
      <point x="748" y="4" type="curve"/>
      <point x="1040" y="36"/>
      <point x="1261" y="251"/>
      <point x="1261" y="586" type="curve" smooth="yes"/>
      <point x="1261" y="921"/>
      <point x="1013" y="1171"/>
      <point x="669" y="1171" type="curve" smooth="yes"/>
    </contour>
    <contour>
      <point x="917" y="1036"/>
      <point x="1083" y="830"/>
      <point x="1083" y="574" type="curve" smooth="yes"/>
      <point x="1083" y="317"/>
      <point x="919" y="116"/>
      <point x="664" y="116" type="curve" smooth="yes"/>
      <point x="411" y="116"/>
      <point x="247" y="319"/>
      <point x="247" y="574" type="curve" smooth="yes"/>
      <point x="247" y="829"/>
      <point x="413" y="1036"/>
      <point x="664" y="1037" type="curve"/>
    </contour>
  </outline>
</glyph>
<glyph name="R" format="1">
  <advance width="1162"/>
  <unicode hex="0052"/>
  <outline>
    <contour>
      <point x="611" y="1036" type="line" smooth="yes"/>
      <point x="739" y="1036"/>
      <point x="833" y="990"/>
      <point x="837" y="868" type="curve" smooth="yes"/>
      <point x="841" y="737"/>
      <point x="771" y="657"/>
      <point x="630" y="657" type="curve" smooth="yes"/>
      <point x="295" y="657" type="line"/>
      <point x="295" y="538" type="line"/>
      <point x="558" y="538" type="line"/>
      <point x="885" y="0" type="line"/>
      <point x="1144" y="0" type="line"/>
      <point x="1144" y="116" type="line"/>
      <point x="998" y="116" type="line"/>
      <point x="714" y="558" type="line"/>
      <point x="902" y="572"/>
      <point x="1003" y="691"/>
      <point x="1003" y="855" type="curve" smooth="yes"/>
      <point x="1003" y="1067"/>
      <point x="858" y="1152"/>
      <point x="623" y="1152" type="curve" smooth="yes"/>
      <point x="291" y="1152" type="line"/>
      <point x="291" y="1036" type="line"/>
    </contour>
    <component base="uc_main_stem"/>
  </outline>
</glyph>
<glyph name="S" format="1">
  <advance width="965"/>
  <unicode hex="0053"/>
  <outline>
    <contour>
      <point x="532" y="-18" type="curve" smooth="yes"/>
      <point x="741" y="-18"/>
      <point x="914" y="105"/>
      <point x="914" y="303" type="curve" smooth="yes"/>
      <point x="914" y="781"/>
      <point x="248" y="553"/>
      <point x="248" y="855" type="curve" smooth="yes"/>
      <point x="248" y="984"/>
      <point x="335" y="1037"/>
      <point x="466" y="1037" type="curve" smooth="yes"/>
      <point x="570" y="1037"/>
      <point x="654" y="994"/>
      <point x="717" y="908" type="curve"/>
      <point x="717" y="826" type="line"/>
      <point x="852" y="826" type="line"/>
      <point x="852" y="1152" type="line"/>
      <point x="717" y="1152" type="line"/>
      <point x="717" y="1078" type="line"/>
      <point x="639" y="1139"/>
      <point x="549" y="1171"/>
      <point x="448" y="1171" type="curve" smooth="yes"/>
      <point x="248" y="1171"/>
      <point x="92" y="1059"/>
      <point x="92" y="858" type="curve" smooth="yes"/>
      <point x="92" y="379"/>
      <point x="749" y="652"/>
      <point x="749" y="298" type="curve" smooth="yes"/>
      <point x="749" y="178"/>
      <point x="638" y="116"/>
      <point x="506" y="116" type="curve" smooth="yes"/>
      <point x="405" y="116"/>
      <point x="314" y="168"/>
      <point x="235" y="271" type="curve"/>
      <point x="235" y="387" type="line"/>
      <point x="100" y="387" type="line"/>
      <point x="100" y="0" type="line"/>
      <point x="235" y="0" type="line"/>
      <point x="235" y="87" type="line"/>
      <point x="319" y="17"/>
      <point x="418" y="-18"/>
    </contour>
  </outline>
</glyph>
<glyph name="T" format="1">
  <advance width="1009"/>
  <unicode hex="0054"/>
  <outline>
    <contour>
      <point x="31" y="1152" type="line"/>
      <point x="31" y="805" type="line"/>
      <point x="160" y="805" type="line"/>
      <point x="160" y="1036" type="line"/>
      <point x="847" y="1036" type="line"/>
      <point x="847" y="805" type="line"/>
      <point x="978" y="805" type="line"/>
      <point x="978" y="1152" type="line"/>
    </contour>
    <component base="uc_main_stem" xOffset="220"/>
  </outline>
</glyph>
<glyph name="W" format="1">
  <advance width="1758"/>
  <unicode hex="0057"/>
  <outline>
    <contour>
      <point x="1323" y="0" type="line"/>
      <point x="1633" y="1036" type="line"/>
      <point x="1775" y="1036" type="line"/>
      <point x="1775" y="1152" type="line"/>
      <point x="1348" y="1152" type="line"/>
      <point x="1348" y="1036" type="line"/>
      <point x="1492" y="1036" type="line"/>
      <point x="1248" y="210" type="line"/>
      <point x="1007" y="1036" type="line"/>
      <point x="1146" y="1036" type="line"/>
      <point x="1146" y="1152" type="line"/>
      <point x="627" y="1152" type="line"/>
      <point x="627" y="1036" type="line"/>
      <point x="767" y="1036" type="line"/>
      <point x="527" y="210" type="line"/>
      <point x="282" y="1036" type="line"/>
      <point x="426" y="1036" type="line"/>
      <point x="426" y="1152" type="line"/>
      <point x="-17" y="1152" type="line"/>
      <point x="-17" y="1036" type="line"/>
      <point x="128" y="1036" type="line"/>
      <point x="444" y="0" type="line"/>
      <point x="597" y="0" type="line"/>
      <point x="879" y="927" type="line"/>
      <point x="1165" y="0" type="line"/>
    </contour>
  </outline>
</glyph>
<glyph name="X" format="1">
  <advance width="1150"/>
  <unicode hex="0058"/>
  <outline>
    <contour>
      <point x="660" y="1152" type="line"/>
      <point x="660" y="1036" type="line"/>
      <point x="800" y="1036" type="line"/>
      <point x="574" y="704" type="line"/>
      <point x="352" y="1036" type="line"/>
      <point x="487" y="1036" type="line"/>
      <point x="487" y="1152" type="line"/>
      <point x="25" y="1152" type="line"/>
      <point x="25" y="1036" type="line"/>
      <point x="179" y="1036" type="line"/>
      <point x="488" y="582" type="line"/>
      <point x="175" y="116" type="line"/>
      <point x="14" y="116" type="line"/>
      <point x="14" y="0" type="line"/>
      <point x="475" y="0" type="line"/>
      <point x="475" y="116" type="line"/>
      <point x="331" y="116" type="line"/>
      <point x="567" y="470" type="line"/>
      <point x="803" y="116" type="line"/>
      <point x="664" y="116" type="line"/>
      <point x="664" y="0" type="line"/>
      <point x="1136" y="0" type="line"/>
      <point x="1136" y="116" type="line"/>
      <point x="981" y="116" type="line"/>
      <point x="653" y="595" type="line"/>
      <point x="955" y="1036" type="line"/>
      <point x="1106" y="1036" type="line"/>
      <point x="1106" y="1152" type="line"/>
    </contour>
  </outline>
</glyph>
<glyph name="Y" format="1">
  <advance width="1129"/>
  <unicode hex="0059"/>
  <outline>
    <contour>
      <point x="129" y="1036" type="line"/>
      <point x="487" y="530" type="line"/>
      <point x="487" y="116" type="line"/>
      <point x="328" y="116" type="line"/>
      <point x="328" y="0" type="line"/>
      <point x="811" y="0" type="line"/>
      <point x="811" y="116" type="line"/>
      <point x="647" y="116" type="line"/>
      <point x="647" y="530" type="line"/>
      <point x="990" y="1036" type="line"/>
      <point x="1146" y="1036" type="line"/>
      <point x="1146" y="1152" type="line"/>
      <point x="686" y="1152" type="line"/>
      <point x="686" y="1036" type="line"/>
      <point x="836" y="1036" type="line"/>
      <point x="579" y="648" type="line"/>
      <point x="305" y="1036" type="line"/>
      <point x="455" y="1036" type="line"/>
      <point x="455" y="1152" type="line"/>
      <point x="-20" y="1152" type="line"/>
      <point x="-20" y="1036" type="line"/>
    </contour>
  </outline>
</glyph>
<glyph name="Z" format="1">
  <advance width="959"/>
  <unicode hex="005A"/>
  <outline>
    <contour>
      <point x="910" y="1040" type="line"/>
      <point x="910" y="1152" type="line"/>
      <point x="78" y="1152" type="line"/>
      <point x="78" y="832" type="line"/>
      <point x="207" y="832" type="line"/>
      <point x="207" y="1036" type="line"/>
      <point x="705" y="1036" type="line"/>
      <point x="48" y="128" type="line"/>
      <point x="48" y="0" type="line"/>
      <point x="920" y="0" type="line"/>
      <point x="920" y="335" type="line"/>
      <point x="791" y="335" type="line"/>
      <point x="791" y="116" type="line"/>
      <point x="243" y="116" type="line"/>
    </contour>
  </outline>
</glyph>
<glyph name="a" format="1">
  <advance width="929.325"/>
  <unicode hex="0061"/>
  <outline>
    <contour>
      <point x="631" y="0" type="line"/>
      <point x="908" y="0" type="line"/>
      <point x="908" y="116" type="line"/>
      <point x="764" y="116" type="line"/>
      <point x="764" y="537" type="line" smooth="yes"/>
      <point x="764" y="838"/>
      <point x="422" y="881"/>
      <point x="131" y="754" type="curve"/>
      <point x="160" y="645" type="line"/>
      <point x="418" y="737"/>
      <point x="615" y="724"/>
      <point x="615" y="532" type="curve" smooth="yes"/>
      <point x="615" y="458" type="line"/>
      <point x="290" y="516"/>
      <point x="70" y="466"/>
      <point x="85" y="204" type="curve" smooth="yes"/>
      <point x="99" y="-43"/>
      <point x="433" y="-85"/>
      <point x="623" y="85" type="curve"/>
    </contour>
    <contour>
      <point x="615" y="178" type="line"/>
      <point x="456" y="54"/>
      <point x="236" y="54"/>
      <point x="225" y="218" type="curve" smooth="yes"/>
      <point x="214" y="385"/>
      <point x="384" y="397"/>
      <point x="615" y="364" type="curve"/>
    </contour>
  </outline>
</glyph>
<glyph name="c" format="1">
  <advance width="900"/>
  <unicode hex="0063"/>
  <outline>
    <contour>
      <point x="830" y="153" type="curve"/>
      <point x="771" y="272" type="line"/>
      <point x="606" y="12"/>
      <point x="217" y="66"/>
      <point x="217" y="400" type="curve" smooth="yes"/>
      <point x="217" y="765"/>
      <point x="658" y="784"/>
      <point x="702" y="503" type="curve"/>
      <point x="821" y="503" type="line"/>
      <point x="821" y="805" type="line"/>
      <point x="688" y="805" type="line"/>
      <point x="697" y="686" type="line"/>
      <point x="603" y="924"/>
      <point x="57" y="853"/>
      <point x="57" y="400" type="curve" smooth="yes"/>
      <point x="57" y="-45"/>
      <point x="590" y="-150"/>
    </contour>
  </outline>
</glyph>
<glyph name="d" format="1">
  <advance width="1014"/>
  <unicode hex="0064"/>
  <outline>
    <component base="lc_ascender_stem_2" xOffset="-46"/>
    <component base="lc_bowl_left"/>
    <contour>
      <point x="447" y="805" type="move" name="top"/>
    </contour>
  </outline>
</glyph>
<glyph name="e" format="1">
  <advance width="934"/>
  <unicode hex="0065"/>
  <outline>
    <contour>
      <point x="844" y="153" type="curve"/>
      <point x="755" y="242" type="line"/>
      <point x="610" y="25"/>
      <point x="214" y="66"/>
      <point x="214" y="400" type="curve" smooth="yes"/>
      <point x="214" y="785"/>
      <point x="705" y="791"/>
      <point x="719" y="467" type="curve"/>
      <point x="141" y="467" type="line"/>
      <point x="141" y="365" type="line"/>
      <point x="861" y="365" type="line"/>
      <point x="861" y="407" type="line" smooth="yes"/>
      <point x="861" y="993"/>
      <point x="57" y="924"/>
      <point x="57" y="400" type="curve" smooth="yes"/>
      <point x="57" y="-45"/>
      <point x="604" y="-150"/>
    </contour>
  </outline>
</glyph>
<glyph name="f" format="1">
  <advance width="597"/>
  <unicode hex="0066"/>
  <outline>
    <contour>
      <point x="64" y="0" type="line"/>
      <point x="498" y="0" type="line"/>
      <point x="498" y="116" type="line"/>
      <point x="339" y="116" type="line"/>
      <point x="339" y="689" type="line"/>
      <point x="499" y="689" type="line"/>
      <point x="499" y="805" type="line"/>
      <point x="339" y="805" type="line"/>
      <point x="339" y="907" type="line" smooth="yes"/>
      <point x="339" y="995"/>
      <point x="383" y="1035"/>
      <point x="443" y="1035" type="curve" smooth="yes"/>
      <point x="491" y="1035"/>
      <point x="532" y="999"/>
      <point x="549" y="936" type="curve"/>
      <point x="659" y="969" type="line"/>
      <point x="636" y="1090"/>
      <point x="562" y="1152"/>
      <point x="434" y="1152" type="curve" smooth="yes"/>
      <point x="286" y="1152"/>
      <point x="188" y="1057"/>
      <point x="188" y="916" type="curve" smooth="yes"/>
      <point x="188" y="805" type="line"/>
      <point x="59" y="805" type="line"/>
      <point x="59" y="689" type="line"/>
      <point x="188" y="689" type="line"/>
      <point x="188" y="116" type="line"/>
      <point x="64" y="116" type="line"/>
    </contour>
  </outline>
</glyph>
<glyph name="g" format="1">
  <advance width="1020"/>
  <unicode hex="0067"/>
  <outline>
    <contour>
      <point x="713" y="805" type="line"/>
      <point x="713" y="-45" type="line" smooth="yes"/>
      <point x="713" y="-248"/>
      <point x="395" y="-253"/>
      <point x="213" y="-161" type="curve"/>
      <point x="166" y="-271" type="line"/>
      <point x="458" y="-406"/>
      <point x="863" y="-348"/>
      <point x="863" y="-21" type="curve" smooth="yes"/>
      <point x="863" y="689" type="line"/>
      <point x="1014" y="689" type="line"/>
      <point x="1014" y="805" type="line"/>
    </contour>
    <component base="lc_bowl_left" yOffset="16" yScale="0.98"/>
    <contour>
      <point x="487" y="805" type="move" name="top"/>
    </contour>
  </outline>
</glyph>
<glyph name="h" format="1">
  <advance width="1064"/>
  <unicode hex="0068"/>
  <outline>
    <component base="lc_ascender_stem" xOffset="5"/>
    <component base="lc_xheight_curved_stem" xOffset="-1"/>
    <contour>
      <point x="647" y="1005" type="move" name="top"/>
    </contour>
  </outline>
</glyph>
<glyph name="i" format="1">
  <advance width="565"/>
  <unicode hex="0069"/>
  <outline>
    <contour>
      <point x="279" y="951" type="curve"/>
      <point x="342" y="951"/>
      <point x="386" y="988"/>
      <point x="386" y="1053" type="curve" smooth="yes"/>
      <point x="386" y="1116"/>
      <point x="346" y="1153"/>
      <point x="279" y="1153" type="curve"/>
      <point x="279" y="1153"/>
      <point x="277" y="1153"/>
      <point x="277" y="1153" type="curve"/>
      <point x="210" y="1153"/>
      <point x="171" y="1116"/>
      <point x="171" y="1053" type="curve" smooth="yes"/>
      <point x="171" y="988"/>
      <point x="215" y="951"/>
      <point x="277" y="951" type="curve"/>
      <point x="277" y="951"/>
      <point x="279" y="951"/>
    </contour>
    <component base="lc_xheight_stem" xOffset="6"/>
  </outline>
</glyph>
<glyph name="j" format="1">
  <advance width="450"/>
  <unicode hex="006A"/>
  <outline>
    <contour>
      <point x="37" y="805" type="line"/>
      <point x="37" y="689" type="line"/>
      <point x="189" y="689" type="line"/>
      <point x="189" y="-8" type="line" smooth="yes"/>
      <point x="189" y="-113"/>
      <point x="171" y="-179"/>
      <point x="73" y="-179" type="curve" smooth="yes"/>
      <point x="-34" y="-179" type="line"/>
      <point x="-34" y="-303" type="line"/>
      <point x="57" y="-303" type="line" smooth="yes"/>
      <point x="278" y="-303"/>
      <point x="340" y="-221"/>
      <point x="340" y="19" type="curve" smooth="yes"/>
      <point x="340" y="805" type="line"/>
    </contour>
    <contour>
      <point x="257" y="1153"/>
      <point x="255" y="1153"/>
      <point x="255" y="1153" type="curve"/>
      <point x="188" y="1153"/>
      <point x="149" y="1116"/>
      <point x="149" y="1053" type="curve" smooth="yes"/>
      <point x="149" y="988"/>
      <point x="193" y="951"/>
      <point x="255" y="951" type="curve"/>
      <point x="255" y="951"/>
      <point x="257" y="951"/>
      <point x="257" y="951" type="curve"/>
      <point x="320" y="951"/>
      <point x="364" y="988"/>
      <point x="364" y="1053" type="curve" smooth="yes"/>
      <point x="364" y="1116"/>
      <point x="324" y="1153"/>
      <point x="257" y="1153" type="curve"/>
    </contour>
  </outline>
</glyph>
<glyph name="k" format="1">
  <advance width="995"/>
  <unicode hex="006B"/>
  <outline>
    <contour>
      <point x="489" y="805" type="line"/>
      <point x="489" y="689" type="line"/>
      <point x="641" y="689" type="line"/>
      <point x="339" y="416" type="line"/>
      <point x="676" y="116" type="line"/>
      <point x="580" y="116" type="line"/>
      <point x="580" y="0" type="line"/>
      <point x="971" y="0" type="line"/>
      <point x="971" y="116" type="line"/>
      <point x="857" y="116" type="line"/>
      <point x="516" y="420" type="line"/>
      <point x="820" y="689" type="line"/>
      <point x="950" y="689" type="line"/>
      <point x="950" y="805" type="line"/>
    </contour>
    <component base="lc_ascender_stem" xOffset="-5"/>
    <contour>
      <point x="593" y="805" type="move" name="top"/>
    </contour>
    <contour>
      <point x="536" y="0" type="move" name="bot"/>
    </contour>
  </outline>
</glyph>
<glyph name="m" format="1">
  <advance width="1604"/>
  <unicode hex="006D"/>
  <outline>
    <component base="lc_xheight_curved_stem" xOffset="539"/>
    <component base="lc_xheight_curved_stem" xOffset="13"/>
    <component base="lc_xheight_stem" xOffset="8"/>
    <contour>
      <point x="860" y="805" type="move" name="top"/>
    </contour>
  </outline>
</glyph>
<glyph name="n" format="1">
  <advance width="1087"/>
  <unicode hex="006E"/>
  <outline>
    <component base="lc_xheight_curved_stem" xOffset="22"/>
    <component base="lc_xheight_stem" xOffset="8"/>
    <contour>
      <point x="553" y="805" type="move" name="top"/>
    </contour>
    <contour>
      <point x="581" y="0" type="move" name="bot"/>
    </contour>
  </outline>
</glyph>
<glyph name="o" format="1">
  <advance width="967"/>
  <unicode hex="006F"/>
  <outline>
    <contour>
      <point x="482" y="107" type="curve"/>
      <point x="320" y="108"/>
      <point x="213" y="227"/>
      <point x="213" y="402" type="curve" smooth="yes"/>
      <point x="213" y="576"/>
      <point x="319" y="694"/>
      <point x="482" y="694" type="curve" smooth="yes"/>
      <point x="646" y="694"/>
      <point x="753" y="577"/>
      <point x="753" y="402" type="curve" smooth="yes"/>
      <point x="753" y="226"/>
      <point x="645" y="108"/>
    </contour>
    <contour>
      <point x="482" y="-18" type="curve" smooth="yes"/>
      <point x="730" y="-18"/>
      <point x="910" y="158"/>
      <point x="910" y="402" type="curve" smooth="yes"/>
      <point x="910" y="645"/>
      <point x="732" y="820"/>
      <point x="484" y="820" type="curve" smooth="yes"/>
      <point x="239" y="820"/>
      <point x="57" y="643"/>
      <point x="57" y="402" type="curve" smooth="yes"/>
      <point x="57" y="157"/>
      <point x="233" y="-18"/>
    </contour>
  </outline>
</glyph>
<glyph name="r" format="1">
  <advance width="743"/>
  <unicode hex="0072"/>
  <outline>
    <contour>
      <point x="304" y="270" type="line"/>
      <point x="364" y="692"/>
      <point x="564" y="719"/>
      <point x="683" y="663" type="curve"/>
      <point x="698" y="785" type="line"/>
      <point x="554" y="873"/>
      <point x="423" y="839"/>
      <point x="291" y="430" type="curve"/>
    </contour>
    <component base="lc_xheight_stem" xOffset="14"/>
  </outline>
</glyph>
<glyph name="s" format="1">
  <advance width="835"/>
  <unicode hex="0073"/>
  <outline>
    <contour>
      <point x="228" y="820"/>
      <point x="95" y="742"/>
      <point x="95" y="594" type="curve" smooth="yes"/>
      <point x="95" y="416"/>
      <point x="201" y="390"/>
      <point x="430" y="335" type="curve" smooth="yes"/>
      <point x="575" y="300"/>
      <point x="616" y="302"/>
      <point x="619" y="217" type="curve" smooth="yes"/>
      <point x="622" y="139"/>
      <point x="558" y="100"/>
      <point x="436" y="100" type="curve" smooth="yes"/>
      <point x="337" y="100"/>
      <point x="230" y="162"/>
      <point x="230" y="253" type="curve" smooth="yes"/>
      <point x="230" y="272" type="line"/>
      <point x="97" y="272" type="line"/>
      <point x="97" y="0" type="line"/>
      <point x="230" y="0" type="line"/>
      <point x="230" y="80" type="line"/>
      <point x="271" y="5"/>
      <point x="379" y="-18"/>
      <point x="473" y="-18" type="curve" smooth="yes"/>
      <point x="643" y="-18"/>
      <point x="768" y="52"/>
      <point x="768" y="214" type="curve" smooth="yes"/>
      <point x="768" y="404"/>
      <point x="651" y="427"/>
      <point x="407" y="486" type="curve" smooth="yes"/>
      <point x="308" y="510"/>
      <point x="239" y="513"/>
      <point x="243" y="600" type="curve" smooth="yes"/>
      <point x="247" y="682"/>
      <point x="320" y="702"/>
      <point x="398" y="702" type="curve" smooth="yes"/>
      <point x="483" y="702"/>
      <point x="597" y="663"/>
      <point x="597" y="566" type="curve" smooth="yes"/>
      <point x="597" y="549" type="line"/>
      <point x="726" y="549" type="line"/>
      <point x="726" y="805" type="line"/>
      <point x="597" y="805" type="line"/>
      <point x="597" y="730" type="line"/>
      <point x="559" y="784"/>
      <point x="483" y="820"/>
      <point x="371" y="820" type="curve" smooth="yes"/>
    </contour>
    <contour>
      <point x="413" y="805" type="move" name="top"/>
    </contour>
    <contour>
      <point x="467" y="0" type="move" name="bot"/>
    </contour>
  </outline>
</glyph>
<glyph name="t" format="1">
  <advance width="565"/>
  <unicode hex="0074"/>
  <outline>
    <contour>
      <point x="146" y="689" type="line"/>
      <point x="146" y="273" type="line" smooth="yes"/>
      <point x="146" y="62"/>
      <point x="223" y="-4"/>
      <point x="412" y="-4" type="curve" smooth="yes"/>
      <point x="507" y="-4" type="line"/>
      <point x="507" y="112" type="line"/>
      <point x="452" y="112" type="line" smooth="yes"/>
      <point x="323" y="112"/>
      <point x="297" y="124"/>
      <point x="297" y="285" type="curve" smooth="yes"/>
      <point x="297" y="689" type="line"/>
      <point x="477" y="689" type="line"/>
      <point x="477" y="805" type="line"/>
      <point x="297" y="805" type="line"/>
      <point x="297" y="1095" type="line"/>
      <point x="146" y="1063" type="line"/>
      <point x="146" y="805" type="line"/>
      <point x="22" y="805" type="line"/>
      <point x="22" y="689" type="line"/>
    </contour>
  </outline>
</glyph>
<glyph name="u" format="1">
  <advance width="996"/>
  <unicode hex="0075"/>
  <outline>
    <contour>
      <point x="512" y="805" type="line"/>
      <point x="512" y="689" type="line"/>
      <point x="675" y="689" type="line"/>
      <point x="675" y="229" type="line"/>
      <point x="603" y="152"/>
      <point x="518" y="107"/>
      <point x="428" y="107" type="curve" smooth="yes"/>
      <point x="345" y="107"/>
      <point x="302" y="161"/>
      <point x="302" y="268" type="curve" smooth="yes"/>
      <point x="302" y="805" type="line"/>
      <point x="11" y="805" type="line"/>
      <point x="11" y="689" type="line"/>
      <point x="154" y="689" type="line"/>
      <point x="154" y="261" type="line" smooth="yes"/>
      <point x="154" y="75"/>
      <point x="237" y="-18"/>
      <point x="403" y="-18" type="curve" smooth="yes"/>
      <point x="502" y="-18"/>
      <point x="592" y="30"/>
      <point x="675" y="109" type="curve"/>
      <point x="680" y="0" type="line"/>
      <point x="972" y="0" type="line"/>
      <point x="972" y="116" type="line"/>
      <point x="826" y="116" type="line"/>
      <point x="826" y="805" type="line"/>
    </contour>
    <contour>
      <point x="467" y="805" type="move" name="top"/>
    </contour>
    <contour>
      <point x="820" y="0" type="move" name="ogonek"/>
    </contour>
  </outline>
</glyph>
<glyph name="v" format="1">
  <advance width="944"/>
  <unicode hex="0076"/>
  <outline>
    <contour>
      <point x="552" y="805" type="line"/>
      <point x="552" y="689" type="line"/>
      <point x="672" y="689" type="line"/>
      <point x="481" y="162" type="line"/>
      <point x="279" y="689" type="line"/>
      <point x="401" y="689" type="line"/>
      <point x="401" y="805" type="line"/>
      <point x="-10" y="805" type="line"/>
      <point x="-10" y="689" type="line"/>
      <point x="122" y="689" type="line"/>
      <point x="414" y="0" type="line"/>
      <point x="550" y="0" type="line"/>
      <point x="821" y="689" type="line"/>
      <point x="954" y="689" type="line"/>
      <point x="954" y="805" type="line"/>
    </contour>
  </outline>
</glyph>
<glyph name="x" format="1">
  <advance width="959"/>
  <unicode hex="0078"/>
  <outline>
    <contour>
      <point x="542" y="805" type="line"/>
      <point x="542" y="689" type="line"/>
      <point x="651" y="689" type="line"/>
      <point x="493" y="492" type="line"/>
      <point x="317" y="689" type="line"/>
      <point x="432" y="689" type="line"/>
      <point x="432" y="805" type="line"/>
      <point x="42" y="805" type="line"/>
      <point x="42" y="689" type="line"/>
      <point x="161" y="689" type="line"/>
      <point x="404" y="413" type="line"/>
      <point x="149" y="116" type="line"/>
      <point x="23" y="116" type="line"/>
      <point x="23" y="0" type="line"/>
      <point x="424" y="0" type="line"/>
      <point x="424" y="116" type="line"/>
      <point x="289" y="116" type="line"/>
      <point x="474" y="333" type="line"/>
      <point x="667" y="116" type="line"/>
      <point x="540" y="116" type="line"/>
      <point x="540" y="0" type="line"/>
      <point x="936" y="0" type="line"/>
      <point x="936" y="116" type="line"/>
      <point x="820" y="116" type="line"/>
      <point x="560" y="413" type="line"/>
      <point x="795" y="689" type="line"/>
      <point x="932" y="689" type="line"/>
      <point x="932" y="805" type="line"/>
    </contour>
  </outline>
</glyph>
<glyph name="y" format="1">
  <advance width="958"/>
  <unicode hex="0079"/>
  <outline>
    <contour>
      <point x="550" y="805" type="line"/>
      <point x="550" y="689" type="line"/>
      <point x="672" y="689" type="line"/>
      <point x="485" y="122" type="line"/>
      <point x="266" y="689" type="line"/>
      <point x="390" y="689" type="line"/>
      <point x="390" y="805" type="line"/>
      <point x="-16" y="805" type="line"/>
      <point x="-16" y="689" type="line"/>
      <point x="103" y="689" type="line"/>
      <point x="373" y="39" type="line"/>
      <point x="464" y="39" type="line"/>
      <point x="432" y="-46" type="line" smooth="yes"/>
      <point x="392" y="-153"/>
      <point x="352" y="-194"/>
      <point x="220" y="-194" type="curve" smooth="yes"/>
      <point x="146" y="-194" type="line"/>
      <point x="146" y="-320" type="line"/>
      <point x="232" y="-320" type="line" smooth="yes"/>
      <point x="474" y="-320"/>
      <point x="535" y="-179"/>
      <point x="606" y="36" type="curve"/>
      <point x="834" y="689" type="line"/>
      <point x="963" y="689" type="line"/>
      <point x="963" y="805" type="line"/>
    </contour>
    <contour>
      <point x="483" y="805" type="move" name="top"/>
    </contour>
  </outline>
</glyph>
<glyph name="z" format="1">
  <advance width="821"/>
  <unicode hex="007A"/>
  <outline>
    <contour>
      <point x="88" y="805" type="line"/>
      <point x="88" y="537" type="line"/>
      <point x="209" y="537" type="line"/>
      <point x="209" y="689" type="line"/>
      <point x="561" y="689" type="line"/>
      <point x="77" y="116" type="line"/>
      <point x="77" y="0" type="line"/>
      <point x="768" y="0" type="line"/>
      <point x="768" y="276" type="line"/>
      <point x="640" y="276" type="line"/>
      <point x="640" y="116" type="line"/>
      <point x="257" y="116" type="line"/>
      <point x="743" y="683" type="line"/>
      <point x="743" y="805" type="line"/>
    </contour>
    <contour>
      <point x="450" y="805" type="move" name="top"/>
    </contour>
  </outline>
</glyph>
<glyph name="section" format="1">
  <advance width="877"/>
  <unicode hex="00A7"/>
  <outline>
    <contour>
      <point x="221" y="486" type="curve" smooth="yes"/>
      <point x="221" y="398"/>
      <point x="367" y="324"/>
      <point x="566" y="225" type="curve"/>
      <point x="646" y="282"/>
      <point x="680" y="330"/>
      <point x="680" y="373" type="curve" smooth="yes"/>
      <point x="680" y="462"/>
      <point x="533" y="533"/>
      <point x="337" y="631" type="curve"/>
      <point x="256" y="576"/>
      <point x="221" y="529"/>
    </contour>
    <contour>
      <point x="116" y="886" type="curve" smooth="yes"/>
      <point x="116" y="1061"/>
      <point x="232" y="1171"/>
      <point x="416" y="1171" type="curve" smooth="yes"/>
      <point x="551" y="1171"/>
      <point x="675" y="1109"/>
      <point x="737" y="1011" type="curve"/>
      <point x="635" y="928" type="line"/>
      <point x="596" y="1002"/>
      <point x="509" y="1048"/>
      <point x="421" y="1048" type="curve"/>
      <point x="315" y="1047"/>
      <point x="257" y="997"/>
      <point x="257" y="918" type="curve" smooth="yes"/>
      <point x="257" y="707"/>
      <point x="809" y="636"/>
      <point x="809" y="400" type="curve" smooth="yes"/>
      <point x="809" y="317"/>
      <point x="747" y="243"/>
      <point x="649" y="177" type="curve"/>
      <point x="729" y="130"/>
      <point x="779" y="43"/>
      <point x="779" y="-48" type="curve" smooth="yes"/>
      <point x="779" y="-215"/>
      <point x="652" y="-320"/>
      <point x="449" y="-320" type="curve" smooth="yes"/>
      <point x="447" y="-320" type="line" smooth="yes"/>
      <point x="289" y="-320"/>
      <point x="166" y="-242"/>
      <point x="127" y="-118" type="curve"/>
      <point x="252" y="-73" type="line"/>
      <point x="275" y="-153"/>
      <point x="354" y="-203"/>
      <point x="441" y="-203" type="curve" smooth="yes"/>
      <point x="569" y="-203"/>
      <point x="640" y="-156"/>
      <point x="640" y="-69" type="curve" smooth="yes"/>
      <point x="640" y="141"/>
      <point x="88" y="226"/>
      <point x="88" y="462" type="curve" smooth="yes"/>
      <point x="88" y="551"/>
      <point x="149" y="616"/>
      <point x="247" y="678" type="curve"/>
      <point x="167" y="724"/>
      <point x="116" y="804"/>
    </contour>
  </outline>
</glyph>
<glyph name="macron" format="1">
  <advance width="593"/>
  <unicode hex="00AF"/>
  <outline>
    <contour>
      <point x="101" y="1171" type="line"/>
      <point x="101" y="1063" type="line"/>
      <point x="477" y="1063" type="line"/>
      <point x="477" y="1171" type="line"/>
    </contour>
    <contour>
      <point x="293" y="805" type="move" name="_top"/>
    </contour>
  </outline>
</glyph>
<glyph name="uni00B3" format="1">
  <advance width="783"/>
  <unicode hex="00B3"/>
  <outline>
    <contour>
      <point x="553" y="926" type="curve" smooth="yes"/>
      <point x="553" y="1023"/>
      <point x="481" y="1068"/>
      <point x="379" y="1068" type="curve" smooth="yes"/>
      <point x="278" y="1068"/>
      <point x="229" y="1013"/>
      <point x="223" y="921" type="curve"/>
      <point x="112" y="941" type="line"/>
      <point x="117" y="1082"/>
      <point x="224" y="1171"/>
      <point x="373" y="1171" type="curve" smooth="yes"/>
      <point x="545" y="1170"/>
      <point x="668" y="1104"/>
      <point x="668" y="941" type="curve" smooth="yes"/>
      <point x="668" y="838"/>
      <point x="618" y="772"/>
      <point x="517" y="743" type="curve"/>
      <point x="616" y="725"/>
      <point x="702" y="657"/>
      <point x="702" y="550" type="curve" smooth="yes"/>
      <point x="702" y="370"/>
      <point x="564" y="283"/>
      <point x="376" y="283" type="curve" smooth="yes"/>
      <point x="373" y="283" type="line" smooth="yes"/>
      <point x="205" y="283"/>
      <point x="91" y="372"/>
      <point x="91" y="547" type="curve" smooth="yes"/>
      <point x="91" y="557" type="line"/>
      <point x="201" y="557" type="line"/>
      <point x="210" y="461"/>
      <point x="270" y="383"/>
      <point x="368" y="383" type="curve" smooth="yes"/>
      <point x="482" y="383"/>
      <point x="582" y="424"/>
      <point x="582" y="520" type="curve" smooth="yes"/>
      <point x="582" y="664"/>
      <point x="505" y="693"/>
      <point x="308" y="693" type="curve"/>
      <point x="308" y="792" type="line"/>
      <point x="476" y="792"/>
      <point x="553" y="814"/>
    </contour>
  </outline>
</glyph>
<glyph name="ae" format="1">
  <advance width="1417"/>
  <unicode hex="00E6"/>
  <outline>
    <contour>
      <point x="196" y="221" type="curve" smooth="yes"/>
      <point x="196" y="149"/>
      <point x="256" y="103"/>
      <point x="327" y="96" type="curve" smooth="yes"/>
      <point x="460" y="83"/>
      <point x="610" y="145"/>
      <point x="610" y="356" type="curve"/>
      <point x="556" y="357"/>
      <point x="475" y="368"/>
      <point x="412" y="368" type="curve" smooth="yes"/>
      <point x="268" y="368"/>
      <point x="196" y="319"/>
    </contour>
    <contour>
      <point x="1209" y="467" type="line"/>
      <point x="1209" y="624"/>
      <point x="1133" y="713"/>
      <point x="998" y="713" type="curve" smooth="yes"/>
      <point x="860" y="713"/>
      <point x="799" y="601"/>
      <point x="782" y="467" type="curve"/>
    </contour>
    <contour>
      <point x="778" y="365" type="line"/>
      <point x="817" y="19"/>
      <point x="1181" y="69"/>
      <point x="1268" y="240" type="curve"/>
      <point x="1340" y="161" type="line"/>
      <point x="1172" y="-97"/>
      <point x="778" y="-45"/>
      <point x="702" y="212" type="curve"/>
      <point x="652" y="52"/>
      <point x="483" y="-16"/>
      <point x="337" y="-16" type="curve" smooth="yes"/>
      <point x="182" y="-16"/>
      <point x="56" y="79"/>
      <point x="55" y="221" type="curve"/>
      <point x="55" y="387"/>
      <point x="171" y="470"/>
      <point x="402" y="470" type="curve" smooth="yes"/>
      <point x="463" y="470"/>
      <point x="536" y="463"/>
      <point x="604" y="450" type="curve"/>
      <point x="604" y="760"/>
      <point x="361" y="739"/>
      <point x="139" y="646" type="curve"/>
      <point x="102" y="749" type="line"/>
      <point x="353" y="862"/>
      <point x="658" y="861"/>
      <point x="698" y="599" type="curve"/>
      <point x="748" y="778"/>
      <point x="903" y="823"/>
      <point x="1007" y="823" type="curve" smooth="yes"/>
      <point x="1211" y="823"/>
      <point x="1340" y="680"/>
      <point x="1340" y="365" type="curve"/>
    </contour>
    <contour>
      <point x="710" y="805" type="move" name="top"/>
    </contour>
  </outline>
</glyph>
<glyph name="eng" format="1">
  <advance width="1087"/>
  <unicode hex="014B"/>
  <outline>
    <contour>
      <point x="309" y="520" type="line"/>
      <point x="578" y="775"/>
      <point x="749" y="727"/>
      <point x="749" y="527" type="curve" smooth="yes"/>
      <point x="749" y="-6" type="line" smooth="yes"/>
      <point x="749" y="-209"/>
      <point x="529" y="-263"/>
      <point x="347" y="-171" type="curve"/>
      <point x="300" y="-281" type="line"/>
      <point x="592" y="-416"/>
      <point x="897" y="-308"/>
      <point x="897" y="19" type="curve" smooth="yes"/>
      <point x="897" y="562" type="line" smooth="yes"/>
      <point x="897" y="891"/>
      <point x="522" y="895"/>
      <point x="309" y="629" type="curve"/>
    </contour>
    <component base="lc_xheight_stem" xOffset="8"/>
  </outline>
</glyph>
<glyph name="Schwa" format="1">
  <advance width="1228"/>
  <unicode hex="018F"/>
  <outline>
    <contour>
      <point x="367" y="1170"/>
      <point x="154" y="1035"/>
      <point x="65" y="845" type="curve"/>
      <point x="186" y="771" type="line"/>
      <point x="251" y="926"/>
      <point x="419" y="1035"/>
      <point x="591" y="1035" type="curve" smooth="yes"/>
      <point x="811" y="1035"/>
      <point x="974" y="857"/>
      <point x="984" y="605" type="curve"/>
      <point x="78" y="605" type="line"/>
      <point x="63" y="222"/>
      <point x="260" y="-19"/>
      <point x="587" y="-19" type="curve" smooth="yes"/>
      <point x="940" y="-19"/>
      <point x="1162" y="211"/>
      <point x="1162" y="577" type="curve"/>
      <point x="1160" y="924"/>
      <point x="918" y="1170"/>
      <point x="579" y="1170" type="curve" smooth="yes"/>
    </contour>
    <contour>
      <point x="390" y="116"/>
      <point x="258" y="259"/>
      <point x="240" y="486" type="curve"/>
      <point x="980" y="486" type="line"/>
      <point x="951" y="259"/>
      <point x="798" y="116"/>
      <point x="583" y="116" type="curve" smooth="yes"/>
    </contour>
    <contour>
      <point x="557" y="1152" type="move" name="bot"/>
    </contour>
  </outline>
</glyph>
<glyph name="breve" format="1">
  <advance width="584"/>
  <unicode hex="02D8"/>
  <outline>
    <contour>
      <point x="389" y="1085" type="line"/>
      <point x="383" y="1028"/>
      <point x="348" y="997"/>
      <point x="292" y="997" type="curve" smooth="yes"/>
      <point x="238" y="997"/>
      <point x="203" y="1028"/>
      <point x="194" y="1085" type="curve"/>
      <point x="81" y="1085" type="line"/>
      <point x="91" y="973"/>
      <point x="167" y="910"/>
      <point x="292" y="909" type="curve"/>
      <point x="416" y="910"/>
      <point x="491" y="973"/>
      <point x="503" y="1085" type="curve"/>
    </contour>
    <contour>
      <point x="293" y="805" type="move" name="_top"/>
    </contour>
  </outline>
</glyph>
<glyph name="uni0311" format="1">
  <advance width="584"/>
  <unicode hex="0311"/>
  <outline>
    <contour>
      <point x="167" y="1084"/>
      <point x="91" y="1021"/>
      <point x="81" y="909" type="curve"/>
      <point x="194" y="909" type="line"/>
      <point x="203" y="966"/>
      <point x="238" y="997"/>
      <point x="292" y="997" type="curve" smooth="yes"/>
      <point x="348" y="997"/>
      <point x="383" y="966"/>
      <point x="389" y="909" type="curve"/>
      <point x="503" y="909" type="line"/>
      <point x="491" y="1021"/>
      <point x="416" y="1084"/>
      <point x="292" y="1085" type="curve"/>
    </contour>
    <contour>
      <point x="293" y="805" type="move" name="_top"/>
    </contour>
  </outline>
</glyph>
<glyph name="Delta" format="1">
  <advance width="1267"/>
  <unicode hex="0394"/>
  <outline>
    <contour>
      <point x="1146" y="0" type="line"/>
      <point x="746" y="1152" type="line"/>
      <point x="531" y="1152" type="line"/>
      <point x="134" y="0" type="line"/>
    </contour>
    <contour>
      <point x="624" y="1036" type="line"/>
      <point x="927" y="116" type="line"/>
      <point x="311" y="116" type="line"/>
      <point x="613" y="1036" type="line"/>
    </contour>
  </outline>
</glyph>
<glyph name="quotesinglbase" format="1">
  <advance width="389"/>
  <unicode hex="201A"/>
  <outline>
    <contour>
      <point x="82" y="211" type="line"/>
      <point x="299" y="211" type="line"/>
      <point x="299" y="0" type="line"/>
      <point x="298" y="-162"/>
      <point x="234" y="-240"/>
      <point x="82" y="-237" type="curve"/>
      <point x="82" y="-150" type="line"/>
      <point x="165" y="-132"/>
      <point x="194" y="-100"/>
      <point x="193" y="0" type="curve"/>
      <point x="82" y="0" type="line"/>
    </contour>
  </outline>
</glyph>
<glyph name="partialdiff" format="1">
  <advance width="816"/>
  <unicode hex="2202"/>
  <outline>
    <contour>
      <point x="223" y="255" type="curve"/>
      <point x="223" y="138"/>
      <point x="270" y="79"/>
      <point x="364" y="79" type="curve"/>
      <point x="429" y="78"/>
      <point x="486" y="121"/>
      <point x="536" y="207" type="curve" smooth="yes"/>
      <point x="586" y="293"/>
      <point x="618" y="395"/>
      <point x="633" y="512" type="curve"/>
      <point x="616" y="583"/>
      <point x="582" y="631"/>
      <point x="530" y="656" type="curve" smooth="yes"/>
      <point x="513" y="664"/>
      <point x="492" y="668"/>
      <point x="468" y="668" type="curve" smooth="yes"/>
      <point x="444" y="668"/>
      <point x="419" y="661"/>
      <point x="395" y="648" type="curve" smooth="yes"/>
      <point x="332" y="613"/>
      <point x="283" y="540"/>
      <point x="250" y="430" type="curve" smooth="yes"/>
      <point x="233" y="370"/>
      <point x="224" y="312"/>
    </contour>
    <contour>
      <point x="313" y="-16" type="curve" smooth="yes"/>
      <point x="126" y="-16"/>
      <point x="52" y="105"/>
      <point x="53" y="294" type="curve" smooth="yes"/>
      <point x="54" y="391"/>
      <point x="84" y="488"/>
      <point x="144" y="584" type="curve" smooth="yes"/>
      <point x="188" y="654"/>
      <point x="247" y="704"/>
      <point x="322" y="734" type="curve" smooth="yes"/>
      <point x="361" y="749"/>
      <point x="404" y="757"/>
      <point x="452" y="757" type="curve" smooth="yes"/>
      <point x="544" y="757"/>
      <point x="611" y="720"/>
      <point x="653" y="645" type="curve"/>
      <point x="655" y="646"/>
      <point x="656" y="666"/>
      <point x="656" y="705" type="curve" smooth="yes"/>
      <point x="656" y="718" type="line" smooth="yes"/>
      <point x="656" y="886"/>
      <point x="615" y="999"/>
      <point x="532" y="1057" type="curve" smooth="yes"/>
      <point x="505" y="1076"/>
      <point x="477" y="1085"/>
      <point x="446" y="1085" type="curve" smooth="yes"/>
      <point x="346" y="1085"/>
      <point x="285" y="1027"/>
      <point x="285" y="932" type="curve"/>
      <point x="205" y="932"/>
      <point x="165" y="962"/>
      <point x="165" y="1021" type="curve" smooth="yes"/>
      <point x="165" y="1127"/>
      <point x="273" y="1182"/>
      <point x="388" y="1182" type="curve" smooth="yes"/>
      <point x="630" y="1182"/>
      <point x="746" y="1004"/>
      <point x="746" y="761" type="curve" smooth="yes"/>
      <point x="746" y="393"/>
      <point x="634" y="-16"/>
    </contour>
  </outline>
</glyph>
<glyph name="summation" format="1">
  <advance width="1132"/>
  <unicode hex="2211"/>
  <outline>
    <contour>
      <point x="773" y="-21" type="line" smooth="yes"/>
      <point x="859" y="-21"/>
      <point x="908" y="29"/>
      <point x="920" y="129" type="curve"/>
      <point x="927" y="181" type="line"/>
      <point x="1019" y="181" type="line"/>
      <point x="1011" y="-179" type="line"/>
      <point x="62" y="-179" type="line"/>
      <point x="62" y="-96" type="line"/>
      <point x="473" y="535" type="line"/>
      <point x="98" y="1086" type="line"/>
      <point x="98" y="1153" type="line"/>
      <point x="940" y="1153" type="line"/>
      <point x="948" y="861" type="line"/>
      <point x="856" y="861" type="line"/>
      <point x="848" y="935" type="line"/>
      <point x="831" y="1020"/>
      <point x="784" y="1062"/>
      <point x="709" y="1062" type="curve" smooth="yes"/>
      <point x="305" y="1062" type="line"/>
      <point x="615" y="590" type="line"/>
      <point x="615" y="532" type="line"/>
      <point x="252" y="-21" type="line"/>
    </contour>
  </outline>
</glyph>
<glyph name="uni2219" format="1">
  <advance width="600"/>
  <unicode hex="2219"/>
  <outline>
    <contour>
      <point x="266" y="525"/>
      <point x="223" y="488"/>
      <point x="224" y="438" type="curve" smooth="yes"/>
      <point x="224" y="390"/>
      <point x="267" y="350"/>
      <point x="315" y="350" type="curve" smooth="yes"/>
      <point x="372" y="350"/>
      <point x="407" y="392"/>
      <point x="406" y="438" type="curve"/>
      <point x="406" y="493"/>
      <point x="364" y="525"/>
      <point x="315" y="525" type="curve" smooth="yes"/>
    </contour>
  </outline>
</glyph>
<glyph name="fj" format="1">
  <advance width="971"/>
  <outline>
    <contour>
      <point x="61" y="0" type="line"/>
      <point x="61" y="116" type="line"/>
      <point x="185" y="116" type="line"/>
      <point x="185" y="689" type="line"/>
      <point x="56" y="689" type="line"/>
      <point x="56" y="805" type="line"/>
      <point x="185" y="805" type="line"/>
      <point x="185" y="943" type="line" smooth="yes"/>
      <point x="185" y="1084"/>
      <point x="268" y="1171"/>
      <point x="416" y="1171" type="curve" smooth="yes"/>
      <point x="544" y="1171"/>
      <point x="616" y="1091"/>
      <point x="616" y="963" type="curve"/>
      <point x="486" y="963" type="line"/>
      <point x="486" y="1017"/>
      <point x="464" y="1053"/>
      <point x="416" y="1053" type="curve" smooth="yes"/>
      <point x="363" y="1053"/>
      <point x="336" y="1013"/>
      <point x="336" y="934" type="curve" smooth="yes"/>
      <point x="336" y="805" type="line"/>
      <point x="861" y="805" type="line"/>
      <point x="861" y="19" type="line" smooth="yes"/>
      <point x="861" y="-221"/>
      <point x="799" y="-303"/>
      <point x="578" y="-303" type="curve" smooth="yes"/>
      <point x="487" y="-303" type="line"/>
      <point x="487" y="-179" type="line"/>
      <point x="594" y="-179" type="line" smooth="yes"/>
      <point x="692" y="-179"/>
      <point x="710" y="-113"/>
      <point x="710" y="-8" type="curve" smooth="yes"/>
      <point x="710" y="689" type="line"/>
      <point x="336" y="689" type="line"/>
      <point x="336" y="116" type="line"/>
      <point x="495" y="116" type="line"/>
      <point x="495" y="0" type="line"/>
    </contour>
    <contour>
      <point x="782" y="1153" type="curve" smooth="yes"/>
      <point x="833" y="1153"/>
      <point x="874" y="1116"/>
      <point x="874" y="1066" type="curve" smooth="yes"/>
      <point x="874" y="1016"/>
      <point x="833" y="979"/>
      <point x="782" y="979" type="curve" smooth="yes"/>
      <point x="731" y="979"/>
      <point x="690" y="1016"/>
      <point x="690" y="1066" type="curve" smooth="yes"/>
      <point x="690" y="1116"/>
      <point x="731" y="1153"/>
    </contour>
  </outline>
</glyph>
<glyph name="lc_ascender_stem" format="1">
  <advance width="561"/>
  <outline>
    <contour>
      <point x="504" y="116" type="line"/>
      <point x="355" y="116" type="line"/>
      <point x="355" y="1153" type="line"/>
      <point x="57" y="1153" type="line"/>
      <point x="57" y="1037" type="line"/>
      <point x="206" y="1037" type="line"/>
      <point x="206" y="116" type="line"/>
      <point x="62" y="116" type="line"/>
      <point x="62" y="0" type="line"/>
      <point x="504" y="0" type="line"/>
    </contour>
  </outline>
</glyph>
<glyph name="lc_ascender_stem_1" format="1">
  <advance width="1061"/>
  <outline>
    <contour>
      <point x="312" y="0" type="line"/>
      <point x="327" y="191" type="line"/>
      <point x="327" y="191"/>
      <point x="327" y="1153"/>
      <point x="327" y="1153" type="curve"/>
      <point x="33" y="1153" type="line"/>
      <point x="33" y="1037" type="line"/>
      <point x="176" y="1037" type="line"/>
      <point x="176" y="116" type="line"/>
      <point x="42" y="116" type="line"/>
      <point x="42" y="0" type="line"/>
    </contour>
  </outline>
</glyph>
<glyph name="lc_ascender_stem_2" format="1">
  <advance width="1055"/>
  <outline>
    <contour>
      <point x="1034" y="0" type="line"/>
      <point x="1034" y="116" type="line"/>
      <point x="882" y="116" type="line"/>
      <point x="882" y="1153" type="line"/>
      <point x="572" y="1153" type="line"/>
      <point x="572" y="1037" type="line"/>
      <point x="734" y="1037" type="line"/>
      <point x="734" y="1037"/>
      <point x="734" y="199"/>
      <point x="734" y="199" type="curve"/>
      <point x="750" y="0" type="line"/>
    </contour>
  </outline>
</glyph>
<glyph name="lc_bowl_left" format="1">
  <advance width="862"/>
  <outline>
    <contour>
      <point x="765" y="182" type="curve"/>
      <point x="765" y="305" type="line"/>
      <point x="607" y="47"/>
      <point x="213" y="2"/>
      <point x="213" y="404" type="curve" smooth="yes"/>
      <point x="213" y="718"/>
      <point x="503" y="799"/>
      <point x="765" y="530" type="curve"/>
      <point x="765" y="530"/>
      <point x="765" y="618"/>
      <point x="765" y="618" type="curve"/>
      <point x="593" y="934"/>
      <point x="57" y="889"/>
      <point x="57" y="404" type="curve" smooth="yes"/>
      <point x="57" y="-115"/>
      <point x="613" y="-113"/>
    </contour>
  </outline>
</glyph>
<glyph name="lc_bowl_right" format="1">
  <advance width="1061"/>
  <outline>
    <contour>
      <point x="256" y="181" type="curve"/>
      <point x="428" y="-135"/>
      <point x="964" y="-79"/>
      <point x="964" y="406" type="curve" smooth="yes"/>
      <point x="964" y="925"/>
      <point x="414" y="912"/>
      <point x="256" y="617" type="curve"/>
      <point x="256" y="494" type="line"/>
      <point x="420" y="752"/>
      <point x="808" y="808"/>
      <point x="808" y="406" type="curve" smooth="yes"/>
      <point x="808" y="92"/>
      <point x="532" y="0"/>
      <point x="256" y="269" type="curve"/>
      <point x="256" y="269"/>
      <point x="256" y="181"/>
    </contour>
  </outline>
</glyph>
<glyph name="lc_descender_stem" format="1">
  <advance width="1017"/>
  <outline>
    <contour>
      <point x="457" y="-336" type="line"/>
      <point x="457" y="-212" type="line"/>
      <point x="292" y="-212" type="line"/>
      <point x="292" y="-212"/>
      <point x="292" y="588"/>
      <point x="292" y="588" type="curve"/>
      <point x="284" y="805" type="line"/>
      <point x="-8" y="805" type="line"/>
      <point x="-8" y="689" type="line"/>
      <point x="145" y="689" type="line"/>
      <point x="145" y="-212" type="line"/>
      <point x="-8" y="-212" type="line"/>
      <point x="-8" y="-336" type="line"/>
    </contour>
  </outline>
</glyph>
<glyph name="lc_descender_stem_1" format="1">
  <advance width="1017"/>
  <outline>
    <contour>
      <point x="-7" y="-336" type="line"/>
      <point x="-7" y="-212" type="line"/>
      <point x="145" y="-212" type="line"/>
      <point x="145" y="-212"/>
      <point x="145" y="588"/>
      <point x="145" y="588" type="curve"/>
      <point x="153" y="805" type="line"/>
      <point x="445" y="805" type="line"/>
      <point x="445" y="689" type="line"/>
      <point x="292" y="689" type="line"/>
      <point x="292" y="-212" type="line"/>
      <point x="458" y="-212" type="line"/>
      <point x="458" y="-336" type="line"/>
    </contour>
  </outline>
</glyph>
<glyph name="lc_xheight_curved_stem" format="1">
  <advance width="1031"/>
  <outline>
    <contour>
      <point x="287" y="520" type="curve"/>
      <point x="556" y="775"/>
      <point x="727" y="727"/>
      <point x="727" y="527" type="curve" smooth="yes"/>
      <point x="727" y="116" type="line"/>
      <point x="612" y="116" type="line"/>
      <point x="612" y="0" type="line"/>
      <point x="1019" y="0" type="line"/>
      <point x="1019" y="116" type="line"/>
      <point x="875" y="116" type="line"/>
      <point x="875" y="562" type="line" smooth="yes"/>
      <point x="875" y="891"/>
      <point x="500" y="895"/>
      <point x="287" y="629" type="curve"/>
      <point x="287" y="629"/>
      <point x="287" y="520"/>
    </contour>
  </outline>
</glyph>
<glyph name="lc_xheight_stem" format="1">
  <advance width="1031"/>
  <outline>
    <contour>
      <point x="206" y="689" type="line"/>
      <point x="206" y="116" type="line"/>
      <point x="54" y="116" type="line"/>
      <point x="54" y="0" type="line"/>
      <point x="502" y="0" type="line"/>
      <point x="502" y="116" type="line"/>
      <point x="357" y="116" type="line"/>
      <point x="357" y="116"/>
      <point x="357" y="648"/>
      <point x="357" y="648" type="curve"/>
      <point x="348" y="805" type="line"/>
      <point x="54" y="805" type="line"/>
      <point x="54" y="689" type="line"/>
    </contour>
  </outline>
</glyph>
<glyph name="uc_main_stem" format="1">
  <advance width="572"/>
  <outline>
    <contour>
      <point x="72" y="1152" type="line"/>
      <point x="72" y="1036" type="line"/>
      <point x="206" y="1036" type="line"/>
      <point x="206" y="116" type="line"/>
      <point x="72" y="116" type="line"/>
      <point x="72" y="0" type="line"/>
      <point x="500" y="0" type="line"/>
      <point x="500" y="116" type="line"/>
      <point x="368" y="116" type="line"/>
      <point x="368" y="1036" type="line"/>
      <point x="500" y="1036" type="line"/>
      <point x="500" y="1152" type="line"/>
    </contour>
  </outline>
</glyph>
